<svg width="30" height="26" viewBox="0 0 30 26" fill="none" xmlns="http://www.w3.org/2000/svg">
<path d="M27.6 4.72727H3.6C3.28174 4.72727 2.97652 4.60276 2.75147 4.38113C2.52643 4.15949 2.4 3.85889 2.4 3.54545C2.4 3.23202 2.52643 2.93142 2.75147 2.70978C2.97652 2.48815 3.28174 2.36364 3.6 2.36364H24C24.3183 2.36364 24.6235 2.23912 24.8485 2.01749C25.0736 1.79586 25.2 1.49526 25.2 1.18182C25.2 0.86838 25.0736 0.567781 24.8485 0.346147C24.6235 0.124513 24.3183 0 24 0H3.6C2.64644 0.00388873 1.73306 0.378675 1.05878 1.04274C0.384501 1.7068 0.00394855 2.60634 0 3.54545V22.4545C0.00394855 23.3937 0.384501 24.2932 1.05878 24.9573C1.73306 25.6213 2.64644 25.9961 3.6 26H27.6C28.2365 26 28.847 25.751 29.2971 25.3077C29.7471 24.8644 30 24.2632 30 23.6364V7.09091C30 6.46403 29.7471 5.86283 29.2971 5.41957C28.847 4.9763 28.2365 4.72727 27.6 4.72727ZM22.2 17.1364C21.844 17.1364 21.496 17.0324 21.2 16.8376C20.904 16.6428 20.6733 16.366 20.537 16.042C20.4008 15.7181 20.3651 15.3617 20.4346 15.0178C20.504 14.6739 20.6755 14.358 20.9272 14.1101C21.1789 13.8622 21.4997 13.6934 21.8488 13.625C22.198 13.5566 22.5599 13.5917 22.8888 13.7259C23.2177 13.86 23.4989 14.0872 23.6966 14.3788C23.8944 14.6703 24 15.013 24 15.3636C24 15.8338 23.8104 16.2847 23.4728 16.6171C23.1352 16.9496 22.6774 17.1364 22.2 17.1364Z" fill="#181818"/>
</svg>
