<svg width="53" height="53" viewBox="0 0 53 53" fill="none" xmlns="http://www.w3.org/2000/svg">
<circle cx="26.1658" cy="26.3798" r="26.1658" fill="#4EAF4E"/>
<path d="M21.8762 35.6329L26.7382 28.2099C27.3362 27.2912 27.8259 26.4982 28.2072 25.8309C28.5972 25.1635 28.8832 24.5655 29.0652 24.0369C29.2559 23.4995 29.3512 22.9839 29.3512 22.4899C29.3512 21.6839 29.1259 21.0512 28.6752 20.5919C28.2246 20.1325 27.5962 19.9029 26.7902 19.9029C25.8976 19.9029 25.0872 20.1152 24.3592 20.5399C23.6399 20.9559 22.9856 21.4585 22.3962 22.0479L22.0192 18.9669C22.7299 18.3949 23.5186 17.9355 24.3852 17.5889C25.2519 17.2422 26.2312 17.0689 27.3232 17.0689C28.4239 17.0689 29.3426 17.2942 30.0792 17.7449C30.8246 18.1955 31.3792 18.7935 31.7432 19.5389C32.1159 20.2842 32.3022 21.1075 32.3022 22.0089C32.3022 22.7455 32.2026 23.4649 32.0032 24.1669C31.8039 24.8602 31.4876 25.6185 31.0542 26.4419C30.6209 27.2565 30.0532 28.1969 29.3512 29.2629L26.9852 32.8379H32.9782V35.6329H21.8762Z" fill="white"/>
</svg>
