<svg width="105" height="66" viewBox="0 0 105 66" fill="none" xmlns="http://www.w3.org/2000/svg">
<circle cx="22.8669" cy="49.9587" r="15.5573" fill="#DADADA"/>
<path d="M77.7513 1.46255C77.9009 1.00189 78.5526 1.00189 78.7023 1.46255L79.6678 4.43389C79.7347 4.6399 79.9267 4.77938 80.1433 4.77938H83.2675C83.7519 4.77938 83.9533 5.39919 83.5614 5.68389L81.0339 7.52027C80.8586 7.6476 80.7853 7.87328 80.8522 8.07929L81.8177 11.0506C81.9673 11.5113 81.4401 11.8943 81.0483 11.6096L78.5207 9.77326C78.3454 9.64594 78.1081 9.64594 77.9329 9.77326L75.4053 11.6096C75.0135 11.8943 74.4862 11.5113 74.6359 11.0506L75.6013 8.07929C75.6683 7.87328 75.595 7.6476 75.4197 7.52027L72.8921 5.68389C72.5003 5.39918 72.7017 4.77938 73.186 4.77938H76.3103C76.5269 4.77938 76.7189 4.6399 76.7858 4.43389L77.7513 1.46255Z" fill="#141414"/>
<path d="M12.1156 54.5329C12.3878 54.8051 12.2633 55.2698 11.8915 55.3694L3.84622 57.5252C3.47444 57.6248 3.13423 57.2846 3.23385 56.9128L5.38957 48.8675C5.48919 48.4957 5.95393 48.3712 6.22609 48.6434L12.1156 54.5329Z" fill="#4EAF4E"/>
<circle cx="97.8202" cy="21.4032" r="7.05852" fill="#DADADA"/>
<path d="M22.6855 28.376H79.1782V54.4465C79.1782 55.551 78.2828 56.4465 77.1782 56.4465H25.6855C24.0287 56.4465 22.6855 55.1033 22.6855 53.4465V28.376Z" fill="#FFCC4A"/>
<path d="M64.7832 27.9365L22.6794 27.9365L22.6794 20.4767C22.6794 18.8199 24.0225 17.4767 25.6794 17.4767L62.7832 17.4767C63.8878 17.4767 64.7832 18.3722 64.7832 19.4767L64.7832 27.9365Z" fill="#4EAF4E" stroke="#141414" stroke-width="2"/>
<path d="M76.5315 17.21H24.5863C23.3909 17.21 22.4219 18.179 22.4219 19.3743V54.0045C22.4219 55.1998 23.3909 56.1689 24.5863 56.1689H76.5315C77.7268 56.1689 78.6959 55.1998 78.6959 54.0045V19.3743C78.6959 18.179 77.7268 17.21 76.5315 17.21Z" stroke="#141414" stroke-width="2" stroke-linecap="round" stroke-linejoin="round"/>
<path d="M61.3809 47.5107H70.0384" stroke="#141414" stroke-width="2" stroke-linecap="round" stroke-linejoin="round"/>
<path d="M48.3945 47.5107H52.7233" stroke="#141414" stroke-width="2" stroke-linecap="round" stroke-linejoin="round"/>
<path d="M22.4219 28.2744H78.6959" stroke="#141414" stroke-width="2" stroke-linecap="round" stroke-linejoin="round"/>
</svg>
