<svg width="97" height="72" viewBox="0 0 97 72" fill="none" xmlns="http://www.w3.org/2000/svg">
<circle cx="65.5052" cy="27.3831" r="23.7884" fill="#282828"/>
<path d="M35.078 1.46255C35.2276 1.00189 35.8793 1.00189 36.029 1.46255L37.1746 4.98826C37.2415 5.19427 37.4335 5.33375 37.6501 5.33375H41.3573C41.8416 5.33375 42.043 5.95356 41.6512 6.23826L38.652 8.41727C38.4768 8.54459 38.4034 8.77027 38.4704 8.97628L39.616 12.502C39.7656 12.9627 39.2384 13.3457 38.8465 13.061L35.8474 10.882C35.6721 10.7547 35.4348 10.7547 35.2596 10.882L32.2605 13.061C31.8686 13.3457 31.3414 12.9627 31.491 12.502L32.6366 8.97628C32.7035 8.77027 32.6302 8.54459 32.455 8.41727L29.4558 6.23826C29.064 5.95356 29.2654 5.33375 29.7497 5.33375H33.4569C33.6735 5.33375 33.8655 5.19427 33.9324 4.98826L35.078 1.46255Z" fill="#FFCC4A"/>
<path d="M15.0808 63.5314C15.353 63.8035 15.2284 64.2683 14.8566 64.3679L4.54707 67.1303C4.17529 67.23 3.83508 66.8897 3.9347 66.518L6.69714 56.2084C6.79676 55.8366 7.26149 55.7121 7.53366 55.9842L15.0808 63.5314Z" fill="#4EAF4E"/>
<circle cx="90.5039" cy="19.9814" r="5.88667" fill="white"/>
<path d="M76.8961 22.3096H29.387C28.1944 22.3096 27.2275 23.2764 27.2275 24.4691V56.8616C27.2275 58.0543 28.1944 59.0211 29.387 59.0211H76.8961C78.0887 59.0211 79.0556 58.0543 79.0556 56.8616V24.4691C79.0556 23.2764 78.0887 22.3096 76.8961 22.3096Z" fill="#181818" stroke="white" stroke-width="2" stroke-linecap="round" stroke-linejoin="round"/>
<path d="M76.8961 22.3096H29.387C28.1944 22.3096 27.2275 23.2764 27.2275 24.4691V56.8616C27.2275 58.0543 28.1944 59.0211 29.387 59.0211H76.8961C78.0887 59.0211 79.0556 58.0543 79.0556 56.8616V24.4691C79.0556 23.2764 78.0887 22.3096 76.8961 22.3096Z" fill="#181818" stroke="white" stroke-width="2" stroke-linecap="round" stroke-linejoin="round"/>
<path d="M76.8961 48.7275H29.387C28.1944 48.7275 27.2275 48.9986 27.2275 49.3331V58.4157C27.2275 58.7501 28.1944 59.0212 29.387 59.0212H76.8961C78.0887 59.0212 79.0556 58.7501 79.0556 58.4157V49.3331C79.0556 48.9986 78.0887 48.7275 76.8961 48.7275Z" fill="#4EAF4E" stroke="white" stroke-width="2" stroke-linecap="round" stroke-linejoin="round"/>
<path d="M61.7793 59.0205L70.4173 69.818" stroke="white" stroke-width="2" stroke-linecap="round" stroke-linejoin="round"/>
<path d="M44.5032 59.0205L35.8652 69.818" stroke="white" stroke-width="2" stroke-linecap="round" stroke-linejoin="round"/>
<path d="M44.5039 41.7451V48.2236" stroke="white" stroke-width="2" stroke-linecap="round" stroke-linejoin="round"/>
<path d="M53.1416 37.4268V48.2243" stroke="white" stroke-width="2" stroke-linecap="round" stroke-linejoin="round"/>
<path d="M61.7793 33.1064V48.223" stroke="white" stroke-width="2" stroke-linecap="round" stroke-linejoin="round"/>
<path d="M53.1416 22.3096V15.8311" stroke="white" stroke-width="2" stroke-linecap="round" stroke-linejoin="round"/>
</svg>
