<svg width="101" height="98" viewBox="0 0 101 98" fill="none" xmlns="http://www.w3.org/2000/svg">
<circle cx="23.7943" cy="74.1937" r="23.7884" fill="#DADADA"/>
<path d="M74.2579 9.46255C74.4076 9.00189 75.0593 9.00189 75.209 9.46255L76.1325 12.3049C76.1995 12.5109 76.3914 12.6504 76.608 12.6504H79.5967C80.081 12.6504 80.2824 13.2702 79.8906 13.5549L77.4727 15.3116C77.2975 15.4389 77.2241 15.6646 77.2911 15.8706L78.2146 18.7129C78.3643 19.1736 77.837 19.5566 77.4452 19.2719L75.0274 17.5153C74.8521 17.3879 74.6148 17.3879 74.4396 17.5153L72.0217 19.2719C71.6299 19.5566 71.1026 19.1736 71.2523 18.7129L72.1758 15.8706C72.2428 15.6646 72.1694 15.4389 71.9942 15.3116L69.5764 13.5549C69.1845 13.2702 69.3859 12.6504 69.8703 12.6504H72.8589C73.0755 12.6504 73.2675 12.5109 73.3344 12.3049L74.2579 9.46255Z" fill="#141414"/>
<path d="M15.9704 51.9884C16.2426 52.2606 16.1181 52.7253 15.7463 52.8249L5.43672 55.5874C5.06493 55.687 4.72473 55.3468 4.82435 54.975L7.58679 44.6654C7.68641 44.2936 8.15114 44.1691 8.42331 44.4413L15.9704 51.9884Z" fill="#4EAF4E"/>
<circle cx="93.3957" cy="25.676" r="7.25703" fill="#DADADA"/>
<rect x="28.6855" y="64.4268" width="51.8211" height="8.02848" fill="#4EAF4E"/>
<path d="M26.2305 42.5444H82.961L54.5957 25.0889L26.2305 42.5444Z" fill="#FFCC4A" stroke="#141414" stroke-width="2" stroke-linecap="round" stroke-linejoin="round"/>
<path d="M34.959 42.5439V64.3634" stroke="#141414" stroke-width="2" stroke-linecap="round" stroke-linejoin="round"/>
<path d="M48.0498 42.5439V64.3634" stroke="#141414" stroke-width="2" stroke-linecap="round" stroke-linejoin="round"/>
<path d="M61.1416 42.5439V64.3634" stroke="#141414" stroke-width="2" stroke-linecap="round" stroke-linejoin="round"/>
<path d="M74.2334 42.5439V64.3634" stroke="#141414" stroke-width="2" stroke-linecap="round" stroke-linejoin="round"/>
<path d="M28.4131 64.3643H80.7797" stroke="#141414" stroke-width="2" stroke-linecap="round" stroke-linejoin="round"/>
<path d="M24.0488 73.0908H85.1433" stroke="#141414" stroke-width="2" stroke-linecap="round" stroke-linejoin="round"/>
</svg>
