<svg width="88" height="88" viewBox="0 0 88 88" fill="none" xmlns="http://www.w3.org/2000/svg">
<circle cx="20.8965" cy="66.3857" r="20.8965" fill="#DADADA"/>
<path d="M56.2999 1.46255C56.4495 1.00189 57.1012 1.00189 57.2509 1.46255L58.3739 4.9189C58.4409 5.12491 58.6329 5.26439 58.8495 5.26439L62.4837 5.26439C62.9681 5.26439 63.1694 5.8842 62.7776 6.1689L59.8374 8.30504C59.6622 8.43236 59.5889 8.65805 59.6558 8.86406L60.7788 12.3204C60.9285 12.7811 60.4013 13.1641 60.0094 12.8794L57.0693 10.7433C56.894 10.616 56.6567 10.616 56.4815 10.7433L53.5413 12.8794C53.1495 13.1641 52.6222 12.7811 52.7719 12.3204L53.895 8.86406C53.9619 8.65805 53.8886 8.43236 53.7133 8.30504L50.7732 6.1689C50.3813 5.8842 50.5827 5.26439 51.0671 5.26439L54.7013 5.26439C54.9179 5.26439 55.1099 5.12491 55.1768 4.9189L56.2999 1.46255Z" fill="#141414"/>
<path d="M29.1967 68.6282C29.4689 68.9004 29.3443 69.3651 28.9726 69.4648L18.9451 72.1516C18.5733 72.2512 18.2331 71.911 18.3328 71.5392L21.0196 61.5118C21.1192 61.14 21.5839 61.0155 21.8561 61.2877L29.1967 68.6282Z" fill="#4EAF4E"/>
<circle cx="72.9807" cy="23.4309" r="6.02949" fill="#DADADA"/>
<path d="M63.4285 34.1963C74.6372 35.2404 83.082 39.6931 83.082 45.0364C83.082 51.1474 72.0883 56.0915 58.5151 56.0915C52.4962 56.0915 46.9687 55.1089 42.7002 53.512" fill="#4EAF4E"/>
<path d="M63.4285 34.1963C74.6372 35.2404 83.082 39.6931 83.082 45.0364C83.082 51.1475 72.0883 56.0915 58.5151 56.0915C52.4962 56.0915 46.9687 55.1089 42.7002 53.512" stroke="#141414" stroke-width="2" stroke-linecap="round" stroke-linejoin="round"/>
<path d="M14.2939 30.2959V42.5793C14.2939 48.6904 25.2876 53.6345 38.8608 53.6345C52.4341 53.6345 63.4277 48.6904 63.4277 42.5793V30.2959" fill="white"/>
<path d="M14.2939 30.2959V42.5793C14.2939 48.6904 25.2876 53.6345 38.8608 53.6345C52.4341 53.6345 63.4277 48.6904 63.4277 42.5793V30.2959" stroke="#141414" stroke-width="2" stroke-linecap="round" stroke-linejoin="round"/>
<path d="M38.8608 41.3514C52.4288 41.3514 63.4277 36.4019 63.4277 30.2963C63.4277 24.1907 52.4288 19.2412 38.8608 19.2412C25.2929 19.2412 14.2939 24.1907 14.2939 30.2963C14.2939 36.4019 25.2929 41.3514 38.8608 41.3514Z" fill="#FFCC4A" stroke="#141414" stroke-width="2" stroke-linecap="round" stroke-linejoin="round"/>
<path d="M29.0342 40.4307V52.7141" stroke="#141414" stroke-width="2" stroke-linecap="round" stroke-linejoin="round"/>
<path d="M33.9482 53.4196V57.3196C33.9482 63.4306 44.9419 68.3747 58.5151 68.3747C72.0884 68.3747 83.082 63.4306 83.082 57.3196V45.0361" stroke="#141414" stroke-width="2" stroke-linecap="round" stroke-linejoin="round"/>
<path d="M68.3418 55.1709V67.4543" stroke="#141414" stroke-width="2" stroke-linecap="round" stroke-linejoin="round"/>
<path d="M48.6875 40.4307V67.4543" stroke="#141414" stroke-width="2" stroke-linecap="round" stroke-linejoin="round"/>
</svg>
