<svg width="100" height="90" viewBox="0 0 100 90" fill="none" xmlns="http://www.w3.org/2000/svg">
<circle cx="24.4691" cy="66.0355" r="23.7884" fill="#DDDDDD"/>
<path d="M80.0655 1.75161C80.2152 1.29096 80.8669 1.29096 81.0166 1.75161L81.9401 4.59395C82.0071 4.79996 82.1991 4.93944 82.4157 4.93944H85.4043C85.8886 4.93944 86.09 5.55925 85.6982 5.84395L83.2803 7.60061C83.1051 7.72794 83.0318 7.95362 83.0987 8.15963L84.0222 11.002C84.1719 11.4626 83.6447 11.8457 83.2528 11.561L80.835 9.80432C80.6597 9.677 80.4224 9.677 80.2472 9.80433L77.8293 11.561C77.4375 11.8457 76.9102 11.4626 77.0599 11.002L77.9835 8.15963C78.0504 7.95362 77.9771 7.72794 77.8018 7.60061L75.384 5.84395C74.9921 5.55925 75.1935 4.93944 75.6779 4.93944H78.6665C78.8831 4.93944 79.0751 4.79996 79.142 4.59395L80.0655 1.75161Z" fill="#141414"/>
<path d="M30.3786 77.1681C30.6508 77.4403 30.5263 77.905 30.1545 78.0046L19.8449 80.767C19.4731 80.8667 19.1329 80.5265 19.2326 80.1547L21.995 69.8451C22.0946 69.4733 22.5593 69.3488 22.8315 69.621L30.3786 77.1681Z" fill="#4EAF4E"/>
<circle cx="92.2854" cy="23.9902" r="7.25703" fill="#DADADA"/>
<path d="M31.9806 61.688C35.7943 68.2935 42.0759 73.1136 49.4434 75.0877C56.811 77.0618 64.661 76.0283 71.2666 72.2146C77.8721 68.4009 82.6921 62.1193 84.6663 54.7518C86.6404 47.3842 85.6069 39.5342 81.7932 32.9287L56.8869 47.3083L31.9806 61.688Z" fill="#FFCC4A"/>
<path d="M56.6592 46.4788V17.4365" stroke="#141414" stroke-width="2" stroke-linecap="round" stroke-linejoin="round"/>
<path d="M81.799 31.958L31.5195 61.0003" stroke="#141414" stroke-width="2" stroke-linecap="round" stroke-linejoin="round"/>
<path d="M28.1015 51.8034C27.7713 50.048 27.6093 48.2652 27.6175 46.479C27.6137 40.4727 29.4741 34.6132 32.9421 29.7092C36.4101 24.8052 41.3147 21.0985 46.979 19.1006V40.8823L28.1015 51.8034Z" fill="#4EAF4E" stroke="#141414" stroke-width="2" stroke-linecap="round" stroke-linejoin="round"/>
<path d="M28.1015 51.8034C27.7713 50.048 27.6093 48.2652 27.6175 46.479C27.6137 40.4727 29.4741 34.6132 32.9421 29.7092C36.4101 24.8052 41.3147 21.0985 46.979 19.1006V40.8823L28.1015 51.8034Z" stroke="#141414" stroke-width="2" stroke-linecap="round" stroke-linejoin="round"/>
<path d="M56.6593 17.4365C61.7483 17.4371 66.7478 18.7748 71.157 21.3158C75.5662 23.8567 79.2303 27.5116 81.7824 31.9144C84.3344 36.3171 85.6848 41.3132 85.6983 46.4021C85.7117 51.4911 84.3877 56.4942 81.859 60.9104C79.3302 65.3266 75.6854 69.0008 71.2897 71.5649C66.894 74.1291 61.9016 75.4933 56.8128 75.5207C51.7239 75.5482 46.7171 74.238 42.294 71.7214C37.8709 69.2048 34.1866 65.5702 31.6104 61.1815" stroke="#141414" stroke-width="2" stroke-linecap="round" stroke-linejoin="round"/>
</svg>
