<svg width="98" height="90" viewBox="0 0 98 90" fill="none" xmlns="http://www.w3.org/2000/svg">
<circle cx="70.7435" cy="40.8734" r="23.7884" fill="#DADADA"/>
<path d="M91.7238 65.4274C91.8734 64.9667 92.5251 64.9667 92.6748 65.4274L93.5983 68.2697C93.6653 68.4757 93.8573 68.6152 94.0739 68.6152H97.0625C97.5468 68.6152 97.7482 69.235 97.3564 69.5197L94.9385 71.2764C94.7633 71.4037 94.69 71.6294 94.7569 71.8354L95.6804 74.6778C95.8301 75.1384 95.3029 75.5215 94.911 75.2368L92.4932 73.4801C92.3179 73.3528 92.0806 73.3528 91.9054 73.4801L89.4875 75.2368C89.0957 75.5215 88.5685 75.1384 88.7181 74.6778L89.6417 71.8354C89.7086 71.6294 89.6353 71.4037 89.46 71.2764L87.0422 69.5197C86.6503 69.235 86.8517 68.6152 87.3361 68.6152H90.3247C90.5413 68.6152 90.7333 68.4757 90.8002 68.2697L91.7238 65.4274Z" fill="#141414"/>
<path d="M12.0837 51.8907C12.3559 52.1629 12.2314 52.6276 11.8596 52.7273L1.55 55.4897C1.17822 55.5893 0.83801 55.2491 0.937629 54.8773L3.70007 44.5678C3.79969 44.196 4.26442 44.0715 4.53659 44.3436L12.0837 51.8907Z" fill="#4EAF4E"/>
<circle cx="45.3154" cy="19.0205" r="5.02144" fill="#DADADA"/>
<path d="M77.1732 37.7822H19.0255C17.7904 37.7822 16.7891 38.7835 16.7891 40.0187V71.329C16.7891 72.5641 17.7904 73.5654 19.0255 73.5654H77.1732C78.4084 73.5654 79.4096 72.5641 79.4096 71.329V40.0187C79.4096 38.7835 78.4084 37.7822 77.1732 37.7822Z" fill="#EBEBEB" stroke="#141414" stroke-width="2" stroke-linecap="round" stroke-linejoin="round"/>
<path d="M79.5166 57.7151L61.6078 73.71L76.5166 73.71C78.1735 73.71 79.5166 72.3668 79.5166 70.71L79.5166 57.7151Z" fill="#4EAF4E" stroke="black"/>
<path d="M16.6846 53.5193L34.5933 37.5244H19.6846C18.0277 37.5244 16.6846 38.8676 16.6846 40.5244V53.5193Z" fill="#4EAF4E" stroke="black"/>
<path d="M48.0991 64.6191C53.0397 64.6191 57.0449 60.614 57.0449 55.6733C57.0449 50.7327 53.0397 46.7275 48.0991 46.7275C43.1585 46.7275 39.1533 50.7327 39.1533 55.6733C39.1533 60.614 43.1585 64.6191 48.0991 64.6191Z" fill="#FFCC4A" stroke="#141414" stroke-width="2" stroke-linecap="round" stroke-linejoin="round"/>
<path d="M61.5186 37.7822L79.4102 53.4374" stroke="#141414" stroke-width="2" stroke-linecap="round" stroke-linejoin="round"/>
<path d="M61.5186 73.5643L79.4102 57.9092" stroke="#141414" stroke-width="2" stroke-linecap="round" stroke-linejoin="round"/>
<path d="M34.6807 37.7822L16.7891 53.4374" stroke="#141414" stroke-width="2" stroke-linecap="round" stroke-linejoin="round"/>
<path d="M34.6807 73.5643L16.7891 57.9092" stroke="#141414" stroke-width="2" stroke-linecap="round" stroke-linejoin="round"/>
</svg>
