<svg width="19" height="18" viewBox="0 0 19 18" fill="none" xmlns="http://www.w3.org/2000/svg">
<path d="M12.8312 1.43433C13.8238 1.43719 14.7749 1.81788 15.4768 2.49328C16.1786 3.16868 16.5743 4.0839 16.5772 5.03905V12.2477C16.5743 13.2029 16.1786 14.1181 15.4768 14.7935C14.7749 15.4689 13.8238 15.8496 12.8312 15.8524H5.33992C4.34732 15.8496 3.39622 15.4689 2.69434 14.7935C1.99247 14.1181 1.59684 13.2029 1.59388 12.2477V5.03905C1.59684 4.0839 1.99247 3.16868 2.69434 2.49328C3.39622 1.81788 4.34732 1.43719 5.33992 1.43433H12.8312ZM12.8312 -0.00732422H5.33992C2.45554 -0.00732422 0.0957031 2.26349 0.0957031 5.03905V12.2477C0.0957031 15.0233 2.45554 17.2941 5.33992 17.2941H12.8312C15.7156 17.2941 18.0754 15.0233 18.0754 12.2477V5.03905C18.0754 2.26349 15.7156 -0.00732422 12.8312 -0.00732422Z" fill="white"/>
<path d="M13.9551 5.03963C13.7329 5.03963 13.5156 4.97621 13.3308 4.85739C13.146 4.73857 13.002 4.56969 12.9169 4.3721C12.8319 4.17451 12.8096 3.95709 12.853 3.74733C12.8963 3.53757 13.0034 3.3449 13.1605 3.19367C13.3177 3.04244 13.5179 2.93945 13.7359 2.89773C13.9539 2.85601 14.1798 2.87742 14.3852 2.95927C14.5905 3.04111 14.766 3.17971 14.8895 3.35753C15.0129 3.53536 15.0788 3.74442 15.0788 3.95829C15.0792 4.10038 15.0503 4.24113 14.994 4.37246C14.9376 4.5038 14.8548 4.62312 14.7504 4.7236C14.646 4.82407 14.522 4.90371 14.3855 4.95794C14.249 5.01218 14.1028 5.03994 13.9551 5.03963ZM9.08575 5.76027C9.67845 5.76027 10.2578 5.92939 10.7507 6.24626C11.2435 6.56312 11.6276 7.0135 11.8544 7.54042C12.0812 8.06735 12.1405 8.64717 12.0249 9.20655C11.9093 9.76593 11.6239 10.2798 11.2048 10.6831C10.7857 11.0863 10.2517 11.361 9.67039 11.4723C9.08907 11.5835 8.48653 11.5264 7.93894 11.3082C7.39136 11.0899 6.92333 10.7203 6.59404 10.2461C6.26475 9.77184 6.089 9.21431 6.089 8.64397C6.08985 7.87941 6.40585 7.14641 6.96766 6.60579C7.52948 6.06517 8.29122 5.76109 9.08575 5.76027ZM9.08575 4.31861C8.19674 4.31861 7.32769 4.57229 6.5885 5.04756C5.84931 5.52284 5.27319 6.19837 4.93298 6.98872C4.59277 7.77908 4.50375 8.64877 4.67719 9.4878C4.85063 10.3268 5.27873 11.0975 5.90736 11.7025C6.53598 12.3074 7.3369 12.7193 8.20883 12.8862C9.08076 13.0531 9.98454 12.9675 10.8059 12.6401C11.6272 12.3127 12.3292 11.7583 12.8231 11.047C13.3171 10.3357 13.5807 9.49944 13.5807 8.64397C13.5807 7.49681 13.1071 6.39664 12.2641 5.58548C11.4212 4.77432 10.2779 4.31861 9.08575 4.31861Z" fill="white"/>
</svg>
