<svg width="54" height="53" viewBox="0 0 54 53" fill="none" xmlns="http://www.w3.org/2000/svg">
<circle cx="26.8889" cy="26.3889" r="26.3889" fill="#181818"/>
<path d="M26.8602 38.841C33.741 38.841 39.319 33.263 39.319 26.3822C39.319 19.5014 33.741 13.9233 26.8602 13.9233C19.9794 13.9233 14.4014 19.5014 14.4014 26.3822C14.4014 33.263 19.9794 38.841 26.8602 38.841Z" stroke="white" stroke-width="2" stroke-linecap="round" stroke-linejoin="round"/>
<path d="M16.6855 33.572L18.204 32.6505C18.3546 32.5577 18.4789 32.4278 18.5652 32.2734C18.6515 32.1189 18.6969 31.945 18.6971 31.768L18.7231 27.083C18.7252 26.8888 18.7838 26.6994 18.8918 26.5379L21.4614 22.5018C21.5385 22.3825 21.639 22.2801 21.7568 22.2008C21.8746 22.1214 22.0072 22.0668 22.1467 22.0401C22.2861 22.0134 22.4296 22.0153 22.5683 22.0455C22.7071 22.0758 22.8382 22.1339 22.9539 22.2163L25.4976 24.0591C25.717 24.2121 25.9842 24.2812 26.2503 24.2538L30.3384 23.6958C30.5864 23.6616 30.8129 23.5368 30.9743 23.3453L33.8554 20.023C34.0262 19.8205 34.1143 19.5609 34.102 19.2962L33.9592 16.1426" stroke="white" stroke-width="2" stroke-linecap="round" stroke-linejoin="round"/>
<path d="M34.5297 36.2066L33.1281 34.805C32.9984 34.6754 32.8375 34.5815 32.6609 34.5324L29.8706 33.8057C29.6255 33.7386 29.4136 33.584 29.2749 33.3711C29.1361 33.1583 29.0803 32.9019 29.1179 32.6506L29.4164 30.5482C29.446 30.3714 29.5198 30.2049 29.631 30.0642C29.7422 29.9236 29.8871 29.8133 30.0523 29.7436L33.9976 28.0954C34.1808 28.019 34.3821 27.9967 34.5777 28.0312C34.7732 28.0657 34.9547 28.1555 35.1007 28.29L38.3322 31.249" stroke="white" stroke-width="2" stroke-linecap="round" stroke-linejoin="round"/>
</svg>
