<svg width="54" height="53" viewBox="0 0 54 53" fill="none" xmlns="http://www.w3.org/2000/svg">
<circle cx="26.8889" cy="26.3889" r="26.3889" fill="#181818"/>
<path d="M27.6141 32.0885C30.9924 32.0885 33.7311 29.3498 33.7311 25.9715C33.7311 22.5932 30.9924 19.8545 27.6141 19.8545C24.2357 19.8545 21.4971 22.5932 21.4971 25.9715C21.4971 29.3498 24.2357 32.0885 27.6141 32.0885Z" stroke="white" stroke-width="2" stroke-linecap="round" stroke-linejoin="round"/>
<path d="M36.218 20.0055C36.5257 20.4402 36.7951 20.9002 37.0232 21.3803L40.3332 23.1967C40.7465 25.0237 40.7509 26.9178 40.346 28.7466L37.0232 30.563C36.7951 31.0431 36.5257 31.5031 36.218 31.9378L36.2819 35.6841C34.8791 36.9457 33.2188 37.8962 31.4127 38.4716L28.1538 36.5418C27.6177 36.5796 27.0796 36.5796 26.5435 36.5418L23.2973 38.459C21.4855 37.8941 19.8197 36.9472 18.4153 35.6841L18.4792 31.9505C18.1741 31.5097 17.9049 31.0457 17.6741 30.563L14.364 28.7466C13.9507 26.9196 13.9464 25.0256 14.3513 23.1967L17.6741 21.3803C17.9022 20.9002 18.1716 20.4402 18.4792 20.0055L18.4153 16.2593C19.8181 14.9976 21.4784 14.0471 23.2846 13.4717L26.5435 15.4015C27.0796 15.3637 27.6177 15.3637 28.1538 15.4015L31.3999 13.4843C33.2118 14.0492 34.8775 14.9961 36.2819 16.2593L36.218 20.0055Z" stroke="white" stroke-width="2" stroke-linecap="round" stroke-linejoin="round"/>
</svg>
