<svg width="32" height="30" viewBox="0 0 32 30" fill="none" xmlns="http://www.w3.org/2000/svg">
<path d="M31.6358 11.6778C31.6004 11.5212 31.531 11.3738 31.4325 11.2458C31.3339 11.1177 31.2085 11.0118 31.0647 10.9354L27.6662 9.08641C27.4853 8.72221 27.2854 8.37202 27.0665 8.03583L27.1236 4.22573C27.1249 4.06592 27.0926 3.90757 27.0287 3.76055C26.9648 3.61353 26.8707 3.48101 26.7523 3.37126C25.0602 1.86623 23.059 0.734224 20.8835 0.0514359C20.7273 0.00364835 20.5625 -0.0110729 20.4 0.00824456C20.2376 0.027562 20.0812 0.0804786 19.9411 0.163498L16.614 2.12458C16.1999 2.11057 15.8001 2.11057 15.386 2.12458L12.0589 0.163498C11.9188 0.0804786 11.7624 0.027562 11.6 0.00824456C11.4375 -0.0110729 11.2727 0.00364835 11.1165 0.0514359C8.93812 0.734743 6.93611 1.872 5.24768 3.38527C5.12822 3.49124 5.03328 3.62108 4.96924 3.76605C4.9052 3.91102 4.87355 4.06776 4.87642 4.22573L4.94781 8.03583C4.71935 8.37202 4.51944 8.72221 4.31953 9.08641L0.935329 10.9354C0.789692 11.0095 0.662807 11.1147 0.563974 11.2431C0.465141 11.3716 0.396867 11.5201 0.364157 11.6778C-0.121386 13.8654 -0.121386 16.1299 0.364157 18.3175C0.399626 18.4741 0.468976 18.6215 0.567517 18.7496C0.666057 18.8777 0.79149 18.9835 0.935329 19.0599L4.3338 20.9089C4.51599 21.2713 4.72106 21.6222 4.94781 21.9595L4.87642 25.7696C4.87511 25.9294 4.90741 26.0878 4.97129 26.2348C5.03516 26.3818 5.12925 26.5143 5.24768 26.6241C6.94217 28.126 8.9426 29.2575 11.1165 29.9439C11.2727 29.9917 11.4375 30.0064 11.6 29.9871C11.7624 29.9678 11.9188 29.9148 12.0589 29.8318L15.386 27.8708H16.614L19.9554 29.8318C20.1291 29.9439 20.333 30.0024 20.5408 29.9999C20.657 29.995 20.772 29.9762 20.8835 29.9439C23.0619 29.2606 25.0639 28.1233 26.7523 26.6101C26.8718 26.5041 26.9667 26.3742 27.0308 26.2293C27.0948 26.0843 27.1264 25.9276 27.1236 25.7696L27.0665 21.9595C27.2807 21.6233 27.4806 21.2731 27.6805 20.9089L31.079 19.0599C31.2207 18.9827 31.3438 18.8764 31.4399 18.7483C31.536 18.6202 31.6029 18.4732 31.6358 18.3175C32.1214 16.1299 32.1214 13.8654 31.6358 11.6778ZM22.2829 14.9977C22.2829 16.2167 21.9144 17.4083 21.224 18.4219C20.5337 19.4354 19.5524 20.2254 18.4044 20.6919C17.2563 21.1584 15.993 21.2804 14.7743 21.0426C13.5555 20.8048 12.436 20.2178 11.5573 19.3558C10.6786 18.4939 10.0803 17.3957 9.83783 16.2001C9.5954 15.0045 9.71982 13.7652 10.1954 12.639C10.6709 11.5128 11.4762 10.5502 12.5094 9.87299C13.5426 9.19575 14.7574 8.83427 16 8.83427C17.6663 8.83427 19.2644 9.48363 20.4427 10.6395C21.621 11.7953 22.2829 13.363 22.2829 14.9977Z" fill="#181818"/>
</svg>
