<svg width="30" height="20" viewBox="0 0 30 20" fill="none" xmlns="http://www.w3.org/2000/svg">
<path d="M30 1.11111V10C30.0007 10.2194 29.9387 10.434 29.8219 10.6169C29.7052 10.7998 29.5388 10.9428 29.3439 11.0278C29.2117 11.0822 29.0709 11.1105 28.9288 11.1111C28.6443 11.1099 28.3712 10.9955 28.1655 10.7917L24.6439 7.125L16.8375 15.2361C16.6344 15.4448 16.3601 15.5618 16.0742 15.5618C15.7884 15.5618 15.5141 15.4448 15.311 15.2361L10.7182 10.4583L1.84048 19.6806C1.63485 19.8844 1.36169 19.9988 1.07724 20C0.793316 19.996 0.521089 19.8821 0.314 19.6806C0.112845 19.4699 0 19.1854 0 18.8889C0 18.5924 0.112845 18.3079 0.314 18.0972L9.95492 8.09722C10.158 7.88858 10.4323 7.77153 10.7182 7.77153C11.004 7.77153 11.2783 7.88858 11.4814 8.09722L16.0742 12.875L23.1308 5.55556L19.5958 1.90278C19.4505 1.74213 19.352 1.54208 19.3117 1.32579C19.2714 1.10949 19.291 0.88579 19.3682 0.680556C19.4516 0.479406 19.5898 0.30787 19.7658 0.186983C19.9418 0.0660961 20.148 0.00111229 20.3591 0H28.9288C29.2129 0 29.4854 0.117063 29.6862 0.325437C29.8871 0.533811 30 0.816426 30 1.11111Z" fill="#181818"/>
</svg>
