<svg width="25" height="24" viewBox="0 0 25 24" fill="none" xmlns="http://www.w3.org/2000/svg">
<path d="M17.0198 1.92487C18.3451 1.92868 19.615 2.43698 20.5521 3.33876C21.4893 4.24054 22.0175 5.46252 22.0214 6.73783V16.3627C22.0175 17.638 21.4893 18.86 20.5521 19.7618C19.615 20.6635 18.3451 21.1718 17.0198 21.1757H7.0176C5.6923 21.1718 4.42241 20.6635 3.48528 19.7618C2.54814 18.86 2.01992 17.638 2.01596 16.3627V6.73783C2.01992 5.46252 2.54814 4.24054 3.48528 3.33876C4.42241 2.43698 5.6923 1.92868 7.0176 1.92487H17.0198ZM17.0198 0H7.0176C3.16643 0 0.015625 3.03194 0.015625 6.73783V16.3627C0.015625 20.0686 3.16643 23.1005 7.0176 23.1005H17.0198C20.871 23.1005 24.0218 20.0686 24.0218 16.3627V6.73783C24.0218 3.03194 20.871 0 17.0198 0Z" fill="#181818"/>
<path d="M18.5196 6.7384C18.2229 6.7384 17.9328 6.65372 17.6861 6.49508C17.4393 6.33643 17.247 6.11094 17.1335 5.84713C17.0199 5.58331 16.9902 5.29301 17.0481 5.01295C17.106 4.73288 17.2489 4.47562 17.4587 4.2737C17.6685 4.07179 17.9359 3.93428 18.2269 3.87857C18.518 3.82286 18.8196 3.85146 19.0938 3.96073C19.368 4.07001 19.6023 4.25506 19.7672 4.49249C19.932 4.72992 20.02 5.00906 20.02 5.29461C20.0204 5.48433 19.9819 5.67226 19.9067 5.84761C19.8314 6.02296 19.7209 6.18228 19.5815 6.31643C19.4421 6.45058 19.2765 6.55691 19.0943 6.62933C18.9121 6.70174 18.7168 6.7388 18.5196 6.7384ZM12.0181 7.70058C12.8095 7.70058 13.5831 7.92639 14.2411 8.34946C14.8991 8.77253 15.4119 9.37386 15.7148 10.0774C16.0176 10.7809 16.0969 11.5551 15.9425 12.302C15.7881 13.0489 15.407 13.7349 14.8474 14.2734C14.2878 14.8118 13.5749 15.1785 12.7987 15.3271C12.0226 15.4757 11.2181 15.3994 10.4869 15.108C9.75582 14.8166 9.13092 14.3231 8.69126 13.6899C8.2516 13.0568 8.01694 12.3123 8.01694 11.5508C8.01807 10.53 8.43999 9.55132 9.19012 8.8295C9.94024 8.10767 10.9573 7.70167 12.0181 7.70058ZM12.0181 5.7757C10.8312 5.7757 9.67081 6.11441 8.68387 6.74899C7.69692 7.38357 6.92769 8.28552 6.47344 9.34079C6.0192 10.3961 5.90035 11.5572 6.13192 12.6775C6.36349 13.7978 6.93508 14.8268 7.77441 15.6345C8.61374 16.4421 9.68312 16.9922 10.8473 17.215C12.0115 17.4378 13.2182 17.3235 14.3148 16.8864C15.4115 16.4493 16.3488 15.709 17.0082 14.7593C17.6677 13.8096 18.0197 12.693 18.0197 11.5508C18.0197 10.0192 17.3874 8.55025 16.2619 7.4672C15.1364 6.38415 13.6098 5.7757 12.0181 5.7757Z" fill="#181818"/>
</svg>
