<svg width="24" height="19" viewBox="0 0 24 19" fill="none" xmlns="http://www.w3.org/2000/svg">
<path d="M23.9854 2.4875C23.1167 2.86467 22.1976 3.11316 21.2572 3.22511C22.2455 2.64677 22.9888 1.72799 23.3476 0.641064C22.4131 1.18708 21.3925 1.5702 20.3294 1.77399C19.8818 1.30517 19.3434 0.932205 18.747 0.677773C18.1506 0.423342 17.5086 0.292756 16.8602 0.293953C14.2347 0.293953 12.11 2.38626 12.11 4.96548C12.1082 5.32424 12.1493 5.68193 12.2326 6.03092C10.3499 5.94272 8.50645 5.46281 6.82005 4.62187C5.13365 3.78093 3.64148 2.59749 2.439 1.14727C2.01714 1.85794 1.79404 2.66879 1.79301 3.49508C1.79301 5.11493 2.63873 6.54676 3.91576 7.38561C3.15916 7.36767 2.41806 7.16756 1.75538 6.80227V6.86013C1.75538 9.12599 3.39568 11.011 5.56668 11.4401C5.15842 11.5488 4.73773 11.6039 4.31522 11.604C4.01542 11.6045 3.7163 11.5754 3.42222 11.5172C4.02575 13.3733 5.78233 14.7231 7.8631 14.7617C6.17232 16.0638 4.09649 16.7676 1.96186 16.7624C1.58296 16.7619 1.20441 16.7393 0.828125 16.6949C2.99969 18.0806 5.52395 18.8135 8.10046 18.8065C16.85 18.8065 21.6301 11.6859 21.6301 5.51025C21.6301 5.30777 21.6248 5.10529 21.6151 4.90763C22.5429 4.24815 23.3456 3.42861 23.9854 2.4875Z" fill="#181818"/>
</svg>
