<svg width="53" height="53" viewBox="0 0 53 53" fill="none" xmlns="http://www.w3.org/2000/svg">
<circle cx="26.1658" cy="26.3798" r="26.1658" fill="#181818"/>
<path d="M26.7122 36.0099C25.6549 36.0099 24.6842 35.8842 23.8002 35.6329C22.9162 35.3729 22.1666 35.0825 21.5512 34.7619L22.2922 32.1489C22.9249 32.4869 23.6096 32.7772 24.3462 33.0199C25.0829 33.2539 25.8716 33.3709 26.7122 33.3709C27.7349 33.3709 28.5409 33.1325 29.1302 32.6559C29.7282 32.1705 30.0272 31.4729 30.0272 30.5629C30.0272 29.6182 29.7239 28.8902 29.1172 28.3789C28.5106 27.8589 27.5832 27.5989 26.3352 27.5989H24.7492V24.8039H26.3222C27.3276 24.8039 28.1032 24.5699 28.6492 24.1019C29.2039 23.6339 29.4812 22.9882 29.4812 22.1649C29.4812 21.3849 29.2429 20.7825 28.7662 20.3579C28.2982 19.9332 27.6222 19.7209 26.7382 19.7209C26.0016 19.7209 25.3082 19.8465 24.6582 20.0979C24.0082 20.3405 23.3669 20.6525 22.7342 21.0339L22.2662 18.2389C22.8902 17.9095 23.6052 17.6365 24.4112 17.4199C25.2259 17.1945 26.1142 17.0819 27.0762 17.0819C28.2376 17.0819 29.2212 17.2855 30.0272 17.6929C30.8332 18.0915 31.4442 18.6462 31.8602 19.3569C32.2762 20.0675 32.4842 20.8779 32.4842 21.7879C32.4842 22.9665 32.1592 23.9632 31.5092 24.7779C30.8592 25.5839 29.9579 26.1255 28.8052 26.4029L28.7922 25.8049C30.1009 26.0302 31.1452 26.5415 31.9252 27.3389C32.7139 28.1362 33.1082 29.2022 33.1082 30.5369C33.1082 31.6982 32.8352 32.6862 32.2892 33.5009C31.7432 34.3155 30.9892 34.9395 30.0272 35.3729C29.0652 35.7975 27.9602 36.0099 26.7122 36.0099Z" fill="white"/>
</svg>
